<?xml version="1.0" standalone="no"?><!DOCTYPE svg PUBLIC "-//W3C//DTD SVG 1.1//EN" "http://www.w3.org/Graphics/SVG/1.1/DTD/svg11.dtd"><svg class="icon" width="32px" height="32.00px" viewBox="0 0 1024 1024" version="1.1" xmlns="http://www.w3.org/2000/svg"><path fill="#8a8a8a" d="M725.6064 559.67744a27.11552 27.11552 0 0 1-19.2512-7.94624l-225.28-225.28a27.27936 27.27936 0 0 1 0-38.5024l61.44-61.44c19.61984-19.61984 60.78464-42.68032 108.58496-49.93024 41.86112-6.30784 102.52288-2.78528 155.2384 49.93024 93.92128 93.92128 38.78912 224.95232 0 263.7824l-61.44 61.44c-5.3248 5.3248-12.32896 7.94624-19.29216 7.94624zM538.8288 307.2l186.7776 186.7776 42.1888-42.1888c19.78368-19.78368 70.0416-116.736 0-186.7776-29.40928-29.36832-65.9456-41.12384-108.544-34.57024-37.4784 5.69344-67.91168 24.20736-78.2336 34.57024l-42.1888 42.1888z"  /><path fill="#8a8a8a" d="M787.0464 272.9984a27.19744 27.19744 0 0 1-19.2512-46.4896l102.4-102.4a27.27936 27.27936 0 0 1 38.5024 38.5024l-102.4 102.4c-5.3248 5.3248-12.288 7.9872-19.2512 7.9872zM359.71072 849.3056a171.45856 171.45856 0 0 1-124.43648-51.77344c-93.92128-93.96224-38.83008-224.99328 0-263.82336l61.44-61.44c10.6496-10.6496 27.8528-10.6496 38.5024 0l225.28 225.28a27.2384 27.2384 0 0 1 0 38.5024l-61.44 61.44c-22.97856 23.01952-78.4384 51.8144-139.34592 51.8144zM315.96544 530.0224l-42.1888 42.1888c-19.74272 19.74272-70.00064 116.736 0 186.69568 70.0416 70.0416 166.99392 19.78368 186.7776 0l42.1888-42.14784-186.7776-186.7776z"  /><path fill="#8a8a8a" d="M500.28544 703.0784a27.2384 27.2384 0 0 1-19.2512-46.53056l81.96096-81.92a27.27936 27.27936 0 0 1 38.5024 38.54336l-81.92 81.92a27.32032 27.32032 0 0 1-19.2512 7.9872zM152.12544 907.8784a27.27936 27.27936 0 0 1-19.2512-46.53056l102.4-102.4a27.27936 27.27936 0 0 1 38.5024 38.54336l-102.4 102.4a27.27936 27.27936 0 0 1-19.2512 7.9872zM356.92544 559.7184a27.27936 27.27936 0 0 1-19.2512-46.4896l81.92-81.92a27.2384 27.2384 0 1 1 38.5024 38.5024l-81.92 81.92a27.27936 27.27936 0 0 1-19.2512 7.9872z"  /></svg>