<?xml version="1.0" standalone="no"?><!DOCTYPE svg PUBLIC "-//W3C//DTD SVG 1.1//EN"
  "http://www.w3.org/Graphics/SVG/1.1/DTD/svg11.dtd">
<svg t="1774873194071" class="icon" viewBox="0 0 1024 1024" version="1.1"
     xmlns="http://www.w3.org/2000/svg" p-id="1686" xmlns:xlink="http://www.w3.org/1999/xlink"
     width="200" height="200">
  <path
    d="M463.36 183.04h-15.36a384 384 0 0 0-47.36 5.12h-1.28l-10.24 2.133333-3.84 0.853334-6.4 1.28h-1.28a384 384 0 0 0-90.453333 34.133333l-5.546667 2.986667-6.826667 3.84-4.693333 2.56h-0.426667l-1.28 1.28 3.84 6.4 112.213334 186.026666 6.4-3.84a170.666667 170.666667 0 0 1 6.826666-3.413333 153.6 153.6 0 0 1 50.346667-14.08 170.666667 170.666667 0 0 1 15.36-0.853333V183.466667zM255.146667 245.333333L239.36 256a384 384 0 0 0-32.426667 26.88l159.573334 159.573333 5.12-4.266666-0.426667-0.853334z m361.386666 315.733334l-0.426666 7.253333-0.426667 7.68a152.32 152.32 0 0 1-34.133333 81.92l-4.693334 5.546667c-1.706667 1.706667-3.413333 4.266667-5.546666 5.546666l159.146666 159.146667 10.24-11.093333a384 384 0 0 0 32.426667-40.106667l1.28-1.28 6.4-9.813333 1.28-2.56a376.746667 376.746667 0 0 0 58.453333-187.306667v-7.68l0.426667-7.68h-224.426667zM85.333333 576v3.413333l0.426667 6.4 0.853333 9.813334V597.333333l0.853334 8.106667v0.853333l1.28 8.533334c2.56 17.92 6.4 35.84 11.52 53.333333l2.986666 8.533333v0.426667l2.56 8.106667 0.853334 1.706666 2.133333 6.4 1.28 2.986667 1.706667 5.12 1.706666 4.266667 1.706667 3.84 2.133333 5.12 1.706667 2.986666 2.56 5.973334 4.266667 8.533333 0.426666 1.28 4.266667 7.253333 0.853333 1.706667 192-115.626667 1.28-0.426666a153.6 153.6 0 0 1-14.08-50.346667zM331.946667 640l-192.426667 115.2 8.96 14.506667 0.426667 0.426666 0.426666 0.853334 0.853334 1.28 10.24 14.506666h0.426666v0.426667l4.693334 6.4 0.853333 0.853333 5.12 5.973334 0.853333 1.28 4.693334 5.546666 2.133333 2.56 4.266667 4.266667 2.133333 2.56 0.853333 0.853333 2.986667 3.413334 1.28 1.28 5.12 5.546666 159.146667-159.146666a170.666667 170.666667 0 0 1-5.546667-5.546667l-4.693333-5.546667-4.266667-5.546666-4.266667-5.973334-4.266666-6.4z m210.346666 52.053333l-6.826666 3.413334a153.6 153.6 0 0 1-72.533334 18.346666 153.6 153.6 0 0 1-43.946666-6.4l-6.826667-2.133333a128 128 0 0 1-7.253333-2.986667L325.12 896l-2.986667 7.68-2.986666 6.4h0.853333l0.426667 0.426667 5.973333 2.133333 7.253333 2.986667c1.28 0 2.133333 0.853333 3.413334 1.28a384 384 0 0 0 76.8 18.346666l6.826666 0.853334 5.973334 0.853333h1.706666a384 384 0 0 0 16.213334 1.28h18.773333a384 384 0 0 0 62.72-4.693333h0.853333l6.4-1.706667 4.266667-0.426667 9.813333-2.133333a384 384 0 0 0 91.733334-34.133333l5.973333-3.413334 6.4-3.413333 4.266667-2.56h0.426666l0.426667-0.426667 1.706667-0.853333-4.266667-6.4-3.84-6.826667z"
    fill="#8BC34A" p-id="1687"></path>
  <path
    d="M478.293333 183.466667v224.853333a157.866667 157.866667 0 0 1 34.133334 7.253333l165.973333-165.546666a384 384 0 0 0-18.773333-12.373334h-0.853334l-5.973333-4.266666-3.84-1.706667-3.413333-2.133333-5.973334-2.986667-0.853333-0.853333a384 384 0 0 0-40.533333-17.92l-1.28-0.426667-8.96-3.413333A384 384 0 0 0 512 186.026667l-3.413333-0.426667h-2.986667l-5.973333-0.853333h-2.133334l-7.253333-0.853334h-2.56l-6.4-0.426666zM196.266667 293.12L190.72 298.666667l-5.12 5.546666a384 384 0 0 0-32 39.68l-1.706667 2.133334a256 256 0 0 0-6.4 9.813333l-1.28 1.706667a376.746667 376.746667 0 0 0-58.453333 187.733333v7.253333l-0.426667 7.68h224.426667l0.426667-7.68 0.426666-7.253333a152.32 152.32 0 0 1 34.133334-81.92c1.28-2.133333 3.413333-3.84 5.12-5.546667 1.706667-2.133333 2.986667-4.266667 5.12-5.973333L196.266667 293.546667zM773.973333 345.6l-165.973333 165.973333c4.266667 11.093333 6.4 22.186667 7.68 34.133334h225.28v-3.413334l-0.853333-5.973333v-2.986667l-0.426667-7.253333v-1.706667l-1.28-8.533333v-0.426667l-1.28-8.96a384 384 0 0 0-11.52-52.906666v-0.426667l-2.56-8.533333-2.986667-8.106667-0.426666-1.706667a256 256 0 0 0-3.413334-9.386666l-2.133333-5.12-3.413333-8.533334-2.133334-4.693333-4.266666-8.96-0.853334-1.706667-3.413333-7.253333V388.266667l-4.266667-7.253334v-0.426666a384 384 0 0 0-21.333333-34.986667z m-213.76 333.653333l-5.546666 4.266667 0.426666 0.426667 116.053334 192 15.786666-10.666667a384 384 0 0 0 32.426667-26.88l-158.72-158.293333z m-194.133333 0l-0.426667 0.853334-158.72 158.293333 6.826667 6.826667c0.853333 0 1.706667 0.853333 2.56 1.706666l5.546667 4.266667 1.28 1.28 6.4 5.12 0.426666 0.853333 6.826667 5.12a384 384 0 0 0 29.866667 20.053334l1.28 0.853333a384 384 0 0 0 19.2 10.666667l0.853333 0.426666a341.333333 341.333333 0 0 0 17.066667 8.533334l5.973333-13.653334 79.786667-193.706666v-0.853334a153.6 153.6 0 0 1-24.746667-16.64"
    fill="#689F38" p-id="1688"></path>
  <path
    d="M833.28 85.333333a104.96 104.96 0 0 0-74.24 30.72 105.386667 105.386667 0 0 0-20.053333 121.173334l-229.12 229.12a105.386667 105.386667 0 1 0 47.786666 47.786666l229.12-229.12a105.386667 105.386667 0 0 0 121.173334-168.96A104.96 104.96 0 0 0 833.28 85.333333"
    fill="#E0E0E0" p-id="1689"></path>
</svg>
